/* XPM */
static char *_06905217ef8403edadd420a23d0b3b4eV2IUYNfyVAKVAKY[] = {
/* columns rows colors chars-per-pixel */
"91 91 5 1 ",
"  c #505163",
". c #58797E",
"X c #5D3043",
"o c #C9CDA0",
"O c white",
/* pixels */
"                                                                                           ",
"                                                                                           ",
"                                                                                           ",
"                                                                                           ",
"        ....    ............................................................    ....       ",
"        ....    ............................................................    ....       ",
"        ....    ............................................................    ....       ",
"        ....    ............................................................    ....       ",
"    ....    ....................................................................    ....   ",
"    ....    ....................................................................    ....   ",
"    ....    ....................................................................    ....   ",
"    ....    ....................................................................    ....   ",
"        ............................................................................       ",
"        ............................................................................       ",
"        ............................................................................       ",
"        ............................................................................       ",
"    ....................................................................................   ",
"    ....................................................................................   ",
"    ....................................................................................   ",
"    ....................................................................................   ",
"    ................................    XXXXXXXXXXXX....................................   ",
"    ................................    XXXXXXXXXXXX....................................   ",
"    ................................    XXXXXXXXXXXX....................................   ",
"    ................................    XXXXXXXXXXXX....................................   ",
"    ............................                    XXXX................................   ",
"    ............................                    XXXX................................   ",
"    ............................                    XXXX................................   ",
"    ............................                    XXXX................................   ",
"    ........................            XXXXXXXX        XXXX............................   ",
"    ........................            XXXXXXXX        XXXX............................   ",
"    ........................            XXXXXXXX        XXXX............................   ",
"    ........................            XXXXXXXX        XXXX............................   ",
"    ....................                        XXXX        XXXX........................   ",
"    ....................                        XXXX        XXXX........................   ",
"    ....................                        XXXX        XXXX........................   ",
"    ....................                        XXXX        XXXX........................   ",
"    ....................            ooooXXXX        XXXX        XXXX....................   ",
"    ....................            ooooXXXX        XXXX        XXXX....................   ",
"    ....................            ooooXXXX        XXXX        XXXX....................   ",
"    ....................            ooooXXXX        XXXX        XXXX....................   ",
"    ....................        ooooXXXX                XXXX    XXXX....................   ",
"    ....................        ooooXXXX                XXXX    XXXX....................   ",
"    ....................        ooooXXXX                XXXX    XXXX....................   ",
"    ....................        ooooXXXX                XXXX    XXXX....................   ",
"    ....................        ooooXXXX                XXXX    XXXX....................   ",
"    ....................        ooooXXXX                XXXX    XXXX....................   ",
"    ....................        ooooXXXX                XXXX    XXXX....................   ",
"    ....................        ooooXXXX                XXXX    XXXX....................   ",
"    ....................        ooooXXXX                XXXX    XXXX....................   ",
"    ....................        ooooXXXX                XXXX    XXXX....................   ",
"    ....................        ooooXXXX                XXXX    XXXX....................   ",
"    ....................        ooooXXXX                XXXX    XXXX....................   ",
"    ....................        ooooXXXX                XXXX    XXXX....................   ",
"    ....................        ooooXXXX                XXXX    XXXX....................   ",
"    ....................        ooooXXXX                XXXX    XXXX....................   ",
"    ....................        ooooXXXX                XXXX    XXXX....................   ",
"    ....................            ooooXXXX        XXXX    XXXXXXXX....................   ",
"    ....................            ooooXXXX        XXXX    XXXXXXXX....................   ",
"    ....................            ooooXXXX        XXXX    XXXXXXXX....................   ",
"    ....................            ooooXXXX        XXXX    XXXXXXXX....................   ",
"    ....................                        XXXX        XXXX........................   ",
"    ....................                        XXXX        XXXX........................   ",
"    ....................                        XXXX        XXXX........................   ",
"    ....................                        XXXX        XXXX........................   ",
"    ........................            XXXXXXXX        XXXX............................   ",
"    ........................            XXXXXXXX        XXXX............................   ",
"    ........................            XXXXXXXX        XXXX............................   ",
"    ........................            XXXXXXXX        XXXX............................   ",
"    ............................                    XXXX................................   ",
"    ............................                    XXXX................................   ",
"    ............................                    XXXX................................   ",
"    ............................                    XXXX................................   ",
"    ................................    XXXXXXXXXXXX....................................   ",
"    ................................    XXXXXXXXXXXX....................................   ",
"    ................................    XXXXXXXXXXXX....................................   ",
"    ................................    XXXXXXXXXXXX....................................   ",
"        ............................................................................       ",
"        ............................................................................       ",
"        ............................................................................       ",
"        ............................................................................       ",
"    ....    ....................................................................    ....   ",
"    ....    ....................................................................    ....   ",
"    ....    ....................................................................    ....   ",
"    ....    ....................................................................    ....   ",
"        ....    ............................................................    ....       ",
"        ....    ............................................................    ....       ",
"        ....    ............................................................    ....       ",
"        ....    ............................................................    ....       ",
"                                                                                           ",
"                                                                                           ",
"                                                                                           "
};
