/* XPM */
static char *fc7ae939c21a4e9fdd8b634367c491018j9UKGPhCALqWH29[] = {
/* columns rows colors chars-per-pixel */
"91 91 4 1 ",
"  c #505163",
". c #58797E",
"X c #A03E48",
"o c white",
/* pixels */
"                                                                                           ",
"                                                                                           ",
"                                                                                           ",
"                                                                                           ",
"        ....    ....XXXX....XXXX....XXXX....XXXX....XXXX....XXXX....XXXX....    ....       ",
"        ....    ....XXXX....XXXX....XXXX....XXXX....XXXX....XXXX....XXXX....    ....       ",
"        ....    ....XXXX....XXXX....XXXX....XXXX....XXXX....XXXX....XXXX....    ....       ",
"        ....    ....XXXX....XXXX....XXXX....XXXX....XXXX....XXXX....XXXX....    ....       ",
"    ....    ....................................................................    ....   ",
"    ....    ....................................................................    ....   ",
"    ....    ....................................................................    ....   ",
"    ....    ....................................................................    ....   ",
"        ....XXXX....XXXX....XXXX....XXXX....XXXX....XXXX....XXXX....XXXX....XXXX....       ",
"        ....XXXX....XXXX....XXXX....XXXX....XXXX....XXXX....XXXX....XXXX....XXXX....       ",
"        ....XXXX....XXXX....XXXX....XXXX....XXXX....XXXX....XXXX....XXXX....XXXX....       ",
"        ....XXXX....XXXX....XXXX....XXXX....XXXX....XXXX....XXXX....XXXX....XXXX....       ",
"    ....................................................................................   ",
"    ....................................................................................   ",
"    ....................................................................................   ",
"    ....................................................................................   ",
"    ....................................................................................   ",
"    ....................................................................................   ",
"    ....................................................................................   ",
"    ....................................................................................   ",
"    ....................................................................................   ",
"    ....................................................................................   ",
"    ....................................................................................   ",
"    ....................................................................................   ",
"    ....................................................................................   ",
"    ....................................................................................   ",
"    ....................................................................................   ",
"    ....................................................................................   ",
"    ....................................................................................   ",
"    ....................................................................................   ",
"    ....................................................................................   ",
"    ....................................................................................   ",
"    ....................................................................................   ",
"    ....................................................................................   ",
"    ....................................................................................   ",
"    ....................................................................................   ",
"    ....................................................................................   ",
"    ....................................................................................   ",
"    ....................................................................................   ",
"    ....................................................................................   ",
"    ....................................................................................   ",
"    ....................................................................................   ",
"    ....................................................................................   ",
"    ....................................................................................   ",
"    ....................................................................................   ",
"    ....................................................................................   ",
"    ....................................................................................   ",
"    ....................................................................................   ",
"    ....................................................................................   ",
"    ....................................................................................   ",
"    ....................................................................................   ",
"    ....................................................................................   ",
"    ....................................................................................   ",
"    ....................................................................................   ",
"    ....................................................................................   ",
"    ....................................................................................   ",
"    ....................................................................................   ",
"    ....................................................................................   ",
"    ....................................................................................   ",
"    ....................................................................................   ",
"    ....................................................................................   ",
"    ....................................................................................   ",
"    ....................................................................................   ",
"    ....................................................................................   ",
"    ....................................................................................   ",
"    ....................................................................................   ",
"    ....................................................................................   ",
"    ....................................................................................   ",
"    ....................................................................................   ",
"    ....................................................................................   ",
"    ....................................................................................   ",
"    ....................................................................................   ",
"        ....XXXX....XXXX....XXXX....XXXX....XXXX....XXXX....XXXX....XXXX....XXXX....       ",
"        ....XXXX....XXXX....XXXX....XXXX....XXXX....XXXX....XXXX....XXXX....XXXX....       ",
"        ....XXXX....XXXX....XXXX....XXXX....XXXX....XXXX....XXXX....XXXX....XXXX....       ",
"        ....XXXX....XXXX....XXXX....XXXX....XXXX....XXXX....XXXX....XXXX....XXXX....       ",
"    ....    ....................................................................    ....   ",
"    ....    ....................................................................    ....   ",
"    ....    ....................................................................    ....   ",
"    ....    ....................................................................    ....   ",
"        ....    ....XXXX....XXXX....XXXX....XXXX....XXXX....XXXX....XXXX....    ....       ",
"        ....    ....XXXX....XXXX....XXXX....XXXX....XXXX....XXXX....XXXX....    ....       ",
"        ....    ....XXXX....XXXX....XXXX....XXXX....XXXX....XXXX....XXXX....    ....       ",
"        ....    ....XXXX....XXXX....XXXX....XXXX....XXXX....XXXX....XXXX....    ....       ",
"                                                                                           ",
"                                                                                           ",
"                                                                                           "
};
