/* XPM */
static char *c32d7ebe69204dc0e11dd3721dc29e6fko5kWmZZEB8yanQw[] = {
/* columns rows colors chars-per-pixel */
"91 91 4 1 ",
"  c #505163",
". c #A03E48",
"X c #58797E",
"o c white",
/* pixels */
"                                                                                           ",
"                                                                                           ",
"                                                                                           ",
"       ....    XXXXXXXX....XXXXXXXXXXXX....XXXXXXXX....XXXXXXXXXXXX....XXXX    ....        ",
"       ....    XXXXXXXX....XXXXXXXXXXXX....XXXXXXXX....XXXXXXXXXXXX....XXXX    ....        ",
"       ....    XXXXXXXX....XXXXXXXXXXXX....XXXXXXXX....XXXXXXXXXXXX....XXXX    ....        ",
"       ....    XXXXXXXX....XXXXXXXXXXXX....XXXXXXXX....XXXXXXXXXXXX....XXXX    ....        ",
"   ....    XXXXXXXXXXXXXXXX....XXXXXXXXXXXX........XXXXXXXXXXXX....XXXXXXXXXXXX    ....    ",
"   ....    XXXXXXXXXXXXXXXX....XXXXXXXXXXXX........XXXXXXXXXXXX....XXXXXXXXXXXX    ....    ",
"   ....    XXXXXXXXXXXXXXXX....XXXXXXXXXXXX........XXXXXXXXXXXX....XXXXXXXXXXXX    ....    ",
"   ....    XXXXXXXXXXXXXXXX....XXXXXXXXXXXX........XXXXXXXXXXXX....XXXXXXXXXXXX    ....    ",
"       XXXX....XXXXXXXXXXXXXXXX....XXXXXXXXXXXXXXXXXXXXXXXX....XXXXXXXXXXXXXXXX....        ",
"       XXXX....XXXXXXXXXXXXXXXX....XXXXXXXXXXXXXXXXXXXXXXXX....XXXXXXXXXXXXXXXX....        ",
"       XXXX....XXXXXXXXXXXXXXXX....XXXXXXXXXXXXXXXXXXXXXXXX....XXXXXXXXXXXXXXXX....        ",
"       XXXX....XXXXXXXXXXXXXXXX....XXXXXXXXXXXXXXXXXXXXXXXX....XXXXXXXXXXXXXXXX....        ",
"   XXXXXXXXXXXX....XXXXXXXXXXXXXXXX....XXXXXXXXXXXXXXXX....XXXXXXXXXXXXXXXX....XXXXXXXX    ",
"   XXXXXXXXXXXX....XXXXXXXXXXXXXXXX....XXXXXXXXXXXXXXXX....XXXXXXXXXXXXXXXX....XXXXXXXX    ",
"   XXXXXXXXXXXX....XXXXXXXXXXXXXXXX....XXXXXXXXXXXXXXXX....XXXXXXXXXXXXXXXX....XXXXXXXX    ",
"   XXXXXXXXXXXX....XXXXXXXXXXXXXXXX....XXXXXXXXXXXXXXXX....XXXXXXXXXXXXXXXX....XXXXXXXX    ",
"   XXXXXXXXXXXXXXXX....XXXXXXXXXXXXXXXX....XXXXXXXX....XXXXXXXXXXXXXXXX....XXXXXXXXXXXX    ",
"   XXXXXXXXXXXXXXXX....XXXXXXXXXXXXXXXX....XXXXXXXX....XXXXXXXXXXXXXXXX....XXXXXXXXXXXX    ",
"   XXXXXXXXXXXXXXXX....XXXXXXXXXXXXXXXX....XXXXXXXX....XXXXXXXXXXXXXXXX....XXXXXXXXXXXX    ",
"   XXXXXXXXXXXXXXXX....XXXXXXXXXXXXXXXX....XXXXXXXX....XXXXXXXXXXXXXXXX....XXXXXXXXXXXX    ",
"   ....XXXXXXXXXXXXXXXX....XXXXXXXXXXXXXXXX........XXXXXXXXXXXXXXXX....XXXXXXXXXXXXXXXX    ",
"   ....XXXXXXXXXXXXXXXX....XXXXXXXXXXXXXXXX........XXXXXXXXXXXXXXXX....XXXXXXXXXXXXXXXX    ",
"   ....XXXXXXXXXXXXXXXX....XXXXXXXXXXXXXXXX........XXXXXXXXXXXXXXXX....XXXXXXXXXXXXXXXX    ",
"   ....XXXXXXXXXXXXXXXX....XXXXXXXXXXXXXXXX........XXXXXXXXXXXXXXXX....XXXXXXXXXXXXXXXX    ",
"   XXXX....XXXXXXXXXXXXXXXX....XXXXXXXXXXXXXXXXXXXXXXXXXXXXXXXX....XXXXXXXXXXXXXXXX....    ",
"   XXXX....XXXXXXXXXXXXXXXX....XXXXXXXXXXXXXXXXXXXXXXXXXXXXXXXX....XXXXXXXXXXXXXXXX....    ",
"   XXXX....XXXXXXXXXXXXXXXX....XXXXXXXXXXXXXXXXXXXXXXXXXXXXXXXX....XXXXXXXXXXXXXXXX....    ",
"   XXXX....XXXXXXXXXXXXXXXX....XXXXXXXXXXXXXXXXXXXXXXXXXXXXXXXX....XXXXXXXXXXXXXXXX....    ",
"   XXXXXXXX....XXXXXXXXXXXXXXXX....XXXXXXXXXXXXXXXXXXXXXXXX....XXXXXXXXXXXXXXXX....XXXX    ",
"   XXXXXXXX....XXXXXXXXXXXXXXXX....XXXXXXXXXXXXXXXXXXXXXXXX....XXXXXXXXXXXXXXXX....XXXX    ",
"   XXXXXXXX....XXXXXXXXXXXXXXXX....XXXXXXXXXXXXXXXXXXXXXXXX....XXXXXXXXXXXXXXXX....XXXX    ",
"   XXXXXXXX....XXXXXXXXXXXXXXXX....XXXXXXXXXXXXXXXXXXXXXXXX....XXXXXXXXXXXXXXXX....XXXX    ",
"   XXXXXXXXXXXX....XXXXXXXXXXXXXXXX....XXXXXXXXXXXXXXXX....XXXXXXXXXXXXXXXX....XXXXXXXX    ",
"   XXXXXXXXXXXX....XXXXXXXXXXXXXXXX....XXXXXXXXXXXXXXXX....XXXXXXXXXXXXXXXX....XXXXXXXX    ",
"   XXXXXXXXXXXX....XXXXXXXXXXXXXXXX....XXXXXXXXXXXXXXXX....XXXXXXXXXXXXXXXX....XXXXXXXX    ",
"   XXXXXXXXXXXX....XXXXXXXXXXXXXXXX....XXXXXXXXXXXXXXXX....XXXXXXXXXXXXXXXX....XXXXXXXX    ",
"   ....XXXXXXXXXXXX....XXXXXXXXXXXXXXXX....XXXXXXXX....XXXXXXXXXXXXXXXX....XXXXXXXX....    ",
"   ....XXXXXXXXXXXX....XXXXXXXXXXXXXXXX....XXXXXXXX....XXXXXXXXXXXXXXXX....XXXXXXXX....    ",
"   ....XXXXXXXXXXXX....XXXXXXXXXXXXXXXX....XXXXXXXX....XXXXXXXXXXXXXXXX....XXXXXXXX....    ",
"   ....XXXXXXXXXXXX....XXXXXXXXXXXXXXXX....XXXXXXXX....XXXXXXXXXXXXXXXX....XXXXXXXX....    ",
"   XXXX....XXXXXXXXXXXX....XXXXXXXXXXXXXXXX........XXXXXXXXXXXXXXXX....XXXXXXXX....XXXX    ",
"   XXXX....XXXXXXXXXXXX....XXXXXXXXXXXXXXXX........XXXXXXXXXXXXXXXX....XXXXXXXX....XXXX    ",
"   XXXX....XXXXXXXXXXXX....XXXXXXXXXXXXXXXX........XXXXXXXXXXXXXXXX....XXXXXXXX....XXXX    ",
"   XXXX....XXXXXXXXXXXX....XXXXXXXXXXXXXXXX........XXXXXXXXXXXXXXXX....XXXXXXXX....XXXX    ",
"   XXXX....XXXXXXXXXXXX....XXXXXXXXXXXXXXXX........XXXXXXXXXXXXXXXX....XXXXXXXX....XXXX    ",
"   XXXX....XXXXXXXXXXXX....XXXXXXXXXXXXXXXX........XXXXXXXXXXXXXXXX....XXXXXXXX....XXXX    ",
"   XXXX....XXXXXXXXXXXX....XXXXXXXXXXXXXXXX........XXXXXXXXXXXXXXXX....XXXXXXXX....XXXX    ",
"   XXXX....XXXXXXXXXXXX....XXXXXXXXXXXXXXXX........XXXXXXXXXXXXXXXX....XXXXXXXX....XXXX    ",
"   ....XXXXXXXXXXXX....XXXXXXXXXXXXXXXX....XXXXXXXX....XXXXXXXXXXXXXXXX....XXXXXXXX....    ",
"   ....XXXXXXXXXXXX....XXXXXXXXXXXXXXXX....XXXXXXXX....XXXXXXXXXXXXXXXX....XXXXXXXX....    ",
"   ....XXXXXXXXXXXX....XXXXXXXXXXXXXXXX....XXXXXXXX....XXXXXXXXXXXXXXXX....XXXXXXXX....    ",
"   ....XXXXXXXXXXXX....XXXXXXXXXXXXXXXX....XXXXXXXX....XXXXXXXXXXXXXXXX....XXXXXXXX....    ",
"   XXXXXXXXXXXX....XXXXXXXXXXXXXXXX....XXXXXXXXXXXXXXXX....XXXXXXXXXXXXXXXX....XXXXXXXX    ",
"   XXXXXXXXXXXX....XXXXXXXXXXXXXXXX....XXXXXXXXXXXXXXXX....XXXXXXXXXXXXXXXX....XXXXXXXX    ",
"   XXXXXXXXXXXX....XXXXXXXXXXXXXXXX....XXXXXXXXXXXXXXXX....XXXXXXXXXXXXXXXX....XXXXXXXX    ",
"   XXXXXXXXXXXX....XXXXXXXXXXXXXXXX....XXXXXXXXXXXXXXXX....XXXXXXXXXXXXXXXX....XXXXXXXX    ",
"   XXXXXXXX....XXXXXXXXXXXXXXXX....XXXXXXXXXXXXXXXXXXXXXXXX....XXXXXXXXXXXXXXXX....XXXX    ",
"   XXXXXXXX....XXXXXXXXXXXXXXXX....XXXXXXXXXXXXXXXXXXXXXXXX....XXXXXXXXXXXXXXXX....XXXX    ",
"   XXXXXXXX....XXXXXXXXXXXXXXXX....XXXXXXXXXXXXXXXXXXXXXXXX....XXXXXXXXXXXXXXXX....XXXX    ",
"   XXXXXXXX....XXXXXXXXXXXXXXXX....XXXXXXXXXXXXXXXXXXXXXXXX....XXXXXXXXXXXXXXXX....XXXX    ",
"   XXXX....XXXXXXXXXXXXXXXX....XXXXXXXXXXXXXXXXXXXXXXXXXXXXXXXX....XXXXXXXXXXXXXXXX....    ",
"   XXXX....XXXXXXXXXXXXXXXX....XXXXXXXXXXXXXXXXXXXXXXXXXXXXXXXX....XXXXXXXXXXXXXXXX....    ",
"   XXXX....XXXXXXXXXXXXXXXX....XXXXXXXXXXXXXXXXXXXXXXXXXXXXXXXX....XXXXXXXXXXXXXXXX....    ",
"   XXXX....XXXXXXXXXXXXXXXX....XXXXXXXXXXXXXXXXXXXXXXXXXXXXXXXX....XXXXXXXXXXXXXXXX....    ",
"   ....XXXXXXXXXXXXXXXX....XXXXXXXXXXXXXXXX........XXXXXXXXXXXXXXXX....XXXXXXXXXXXXXXXX    ",
"   ....XXXXXXXXXXXXXXXX....XXXXXXXXXXXXXXXX........XXXXXXXXXXXXXXXX....XXXXXXXXXXXXXXXX    ",
"   ....XXXXXXXXXXXXXXXX....XXXXXXXXXXXXXXXX........XXXXXXXXXXXXXXXX....XXXXXXXXXXXXXXXX    ",
"   ....XXXXXXXXXXXXXXXX....XXXXXXXXXXXXXXXX........XXXXXXXXXXXXXXXX....XXXXXXXXXXXXXXXX    ",
"   XXXXXXXXXXXXXXXX....XXXXXXXXXXXXXXXX....XXXXXXXX....XXXXXXXXXXXXXXXX....XXXXXXXXXXXX    ",
"   XXXXXXXXXXXXXXXX....XXXXXXXXXXXXXXXX....XXXXXXXX....XXXXXXXXXXXXXXXX....XXXXXXXXXXXX    ",
"   XXXXXXXXXXXXXXXX....XXXXXXXXXXXXXXXX....XXXXXXXX....XXXXXXXXXXXXXXXX....XXXXXXXXXXXX    ",
"   XXXXXXXXXXXXXXXX....XXXXXXXXXXXXXXXX....XXXXXXXX....XXXXXXXXXXXXXXXX....XXXXXXXXXXXX    ",
"       XXXXXXXX....XXXXXXXXXXXXXXXX....XXXXXXXXXXXXXXXX....XXXXXXXXXXXXXXXX....XXXX        ",
"       XXXXXXXX....XXXXXXXXXXXXXXXX....XXXXXXXXXXXXXXXX....XXXXXXXXXXXXXXXX....XXXX        ",
"       XXXXXXXX....XXXXXXXXXXXXXXXX....XXXXXXXXXXXXXXXX....XXXXXXXXXXXXXXXX....XXXX        ",
"       XXXXXXXX....XXXXXXXXXXXXXXXX....XXXXXXXXXXXXXXXX....XXXXXXXXXXXXXXXX....XXXX        ",
"   ....    ....XXXXXXXXXXXXXXXX....XXXXXXXX........XXXXXXXX....XXXXXXXXXXXXXXXX    ....    ",
"   ....    ....XXXXXXXXXXXXXXXX....XXXXXXXX........XXXXXXXX....XXXXXXXXXXXXXXXX    ....    ",
"   ....    ....XXXXXXXXXXXXXXXX....XXXXXXXX........XXXXXXXX....XXXXXXXXXXXXXXXX    ....    ",
"   ....    ....XXXXXXXXXXXXXXXX....XXXXXXXX........XXXXXXXX....XXXXXXXXXXXXXXXX    ....    ",
"       ....    XXXXXXXXXXXX....XXXXXXXX....XXXXXXXX....XXXXXXXX....XXXXXXXX    ....        ",
"       ....    XXXXXXXXXXXX....XXXXXXXX....XXXXXXXX....XXXXXXXX....XXXXXXXX    ....        ",
"       ....    XXXXXXXXXXXX....XXXXXXXX....XXXXXXXX....XXXXXXXX....XXXXXXXX    ....        ",
"       ....    XXXXXXXXXXXX....XXXXXXXX....XXXXXXXX....XXXXXXXX....XXXXXXXX    ....        ",
"                                                                                           ",
"                                                                                           ",
"                                                                                           ",
"                                                                                           "
};
