/* XPM */
static char *ab9b421b7d7e4d4fc0159d16af5f25e91semXi6c4ZeU77bI[] = {
/* columns rows colors chars-per-pixel */
"91 91 6 1 ",
"  c #505163",
". c #58797E",
"X c #C9CDA0",
"o c #A03E48",
"O c #D9A155",
"+ c white",
/* pixels */
"                                                                                           ",
"                                                                                           ",
"                                                                                           ",
"        ....    ....    ....................................................    ....       ",
"        ....    ....    ....................................................    ....       ",
"        ....    ....    ....................................................    ....       ",
"        ....    ....    ....................................................    ....       ",
"    ....    ....    ............................................................    ....   ",
"    ....    ....    ............................................................    ....   ",
"    ....    ....    ............................................................    ....   ",
"    ....    ....    ............................................................    ....   ",
"        ....    ........XXXX........XXXX........XXXX........XXXX....................       ",
"        ....    ........XXXX........XXXX........XXXX........XXXX....................       ",
"        ....    ........XXXX........XXXX........XXXX........XXXX....................       ",
"        ....    ........XXXX........XXXX........XXXX........XXXX....................       ",
"    ....    ............                                                ................   ",
"    ....    ............                                                ................   ",
"    ....    ............                                                ................   ",
"    ....    ............                                                ................   ",
"        ............                                                        ............   ",
"        ............                                                        ............   ",
"        ............                                                        ............   ",
"        ............                                                        ............   ",
"    ............                                                                ........   ",
"    ............                                                                ........   ",
"    ............                                                                ........   ",
"    ............                                                                ........   ",
"    ............                                                                ........   ",
"    ............                                                                ........   ",
"    ............                                                                ........   ",
"    ............                                                                ........   ",
"    ........XXXX                    ........................                    oooooooo   ",
"    ........XXXX                    ........................                    oooooooo   ",
"    ........XXXX                    ........................                    oooooooo   ",
"    ........XXXX                    ........................                    oooooooo   ",
"    ............                ................................                ........   ",
"    ............                ................................                ........   ",
"    ............                ................................                ........   ",
"    ............                ................................                ........   ",
"    ............    OOOOOOOO    ................................    OOOOOOOO    ........   ",
"    ............    OOOOOOOO    ................................    OOOOOOOO    ........   ",
"    ............    OOOOOOOO    ................................    OOOOOOOO    ........   ",
"    ............    OOOOOOOO    ................................    OOOOOOOO    ........   ",
"    ........XXXX                ................................                oooooooo   ",
"    ........XXXX                ................................                oooooooo   ",
"    ........XXXX                ................................                oooooooo   ",
"    ........XXXX                ................................                oooooooo   ",
"    ............    OOOOOOOO        ........................        OOOOOOOO    ........   ",
"    ............    OOOOOOOO        ........................        OOOOOOOO    ........   ",
"    ............    OOOOOOOO        ........................        OOOOOOOO    ........   ",
"    ............    OOOOOOOO        ........................        OOOOOOOO    ........   ",
"    ............                                                                ........   ",
"    ............                                                                ........   ",
"    ............                                                                ........   ",
"    ............                                                                ........   ",
"    ........XXXX                OOOO        OOOO        OOOO        OOOO        ........   ",
"    ........XXXX                OOOO        OOOO        OOOO        OOOO        ........   ",
"    ........XXXX                OOOO        OOOO        OOOO        OOOO        ........   ",
"    ........XXXX                OOOO        OOOO        OOOO        OOOO        ........   ",
"    ................                                                        ............   ",
"    ................                                                        ............   ",
"    ................                                                        ............   ",
"    ................                                                        ............   ",
"    ....................                                                ................   ",
"    ....................                                                ................   ",
"    ....................                                                ................   ",
"    ....................                                                ................   ",
"    ........................OOOO............OOOO........XXXX........................       ",
"    ........................OOOO............OOOO........XXXX........................       ",
"    ........................OOOO............OOOO........XXXX........................       ",
"    ........................OOOO............OOOO........XXXX........................       ",
"    ....................OOOO............OOOO........XXXX........................    ....   ",
"    ....................OOOO............OOOO........XXXX........................    ....   ",
"    ....................OOOO............OOOO........XXXX........................    ....   ",
"    ....................OOOO............OOOO........XXXX........................    ....   ",
"        ................OOOO............OOOO............XXXX................    ....       ",
"        ................OOOO............OOOO............XXXX................    ....       ",
"        ................OOOO............OOOO............XXXX................    ....       ",
"        ................OOOO............OOOO............XXXX................    ....       ",
"    ....    ................OOOO............OOOO........................    ....    ....   ",
"    ....    ................OOOO............OOOO........................    ....    ....   ",
"    ....    ................OOOO............OOOO........................    ....    ....   ",
"    ....    ................OOOO............OOOO........................    ....    ....   ",
"        ....    ............OOOO............OOOO....................    ....    ....       ",
"        ....    ............OOOO............OOOO....................    ....    ....       ",
"        ....    ............OOOO............OOOO....................    ....    ....       ",
"        ....    ............OOOO............OOOO....................    ....    ....       ",
"                                                                                           ",
"                                                                                           ",
"                                                                                           ",
"                                                                                           "
};
