/* XPM */
static char *_4081f73fef84946f83649b75431e219JzTH1eofZWNB5gk0[] = {
/* columns rows colors chars-per-pixel */
"91 91 7 1 ",
"  c #505163",
". c #58797E",
"X c #C9CDA0",
"o c #A03E48",
"O c #D9A155",
"+ c #5D3043",
"@ c white",
/* pixels */
"                                                                                           ",
"                                                                                           ",
"                                                                                           ",
"       ....    ............................................................    ....        ",
"       ....    ............................................................    ....        ",
"       ....    ............................................................    ....        ",
"       ....    ............................................................    ....        ",
"   ....    ....................................................................    ....    ",
"   ....    ....................................................................    ....    ",
"   ....    ....................................................................    ....    ",
"   ....    ....................................................................    ....    ",
"       ............................................................................        ",
"       ............................................................................        ",
"       ............................................................................        ",
"       ............................................................................        ",
"   ....................................................................................    ",
"   ....................................................................................    ",
"   ....................................................................................    ",
"   ....................................................................................    ",
"   ........................XXXXooooXXXXooooXXXXooooXXXXooooXXXX........................    ",
"   ........................XXXXooooXXXXooooXXXXooooXXXXooooXXXX........................    ",
"   ........................XXXXooooXXXXooooXXXXooooXXXXooooXXXX........................    ",
"   ........................XXXXooooXXXXooooXXXXooooXXXXooooXXXX........................    ",
"   ....................oooo                                    oooo....................    ",
"   ....................oooo                                    oooo....................    ",
"   ....................oooo                                    oooo....................    ",
"   ....................oooo                                    oooo....................    ",
"   ....................                                            ....................    ",
"   ....................                                            ....................    ",
"   ....................                                            ....................    ",
"   ....................                                            ....................    ",
"   ............XXXX                                                    XXXX............    ",
"   ............XXXX                                                    XXXX............    ",
"   ............XXXX                                                    XXXX............    ",
"   ............XXXX                                                    XXXX............    ",
"   ................                                                    ................    ",
"   ................                                                    ................    ",
"   ................                                                    ................    ",
"   ................                                                    ................    ",
"   ............XXXX                                                    XXXX............    ",
"   ............XXXX                                                    XXXX............    ",
"   ............XXXX                                                    XXXX............    ",
"   ............XXXX                                                    XXXX............    ",
"   ................            OOOO        OOOO        OOOO            ................    ",
"   ................            OOOO        OOOO        OOOO            ................    ",
"   ................            OOOO        OOOO        OOOO            ................    ",
"   ................            OOOO        OOOO        OOOO            ................    ",
"   ............XXXX                                                    XXXX............    ",
"   ............XXXX                                                    XXXX............    ",
"   ............XXXX                                                    XXXX............    ",
"   ............XXXX                                                    XXXX............    ",
"   ................            OOOO        OOOO        OOOO            ................    ",
"   ................            OOOO        OOOO        OOOO            ................    ",
"   ................            OOOO        OOOO        OOOO            ................    ",
"   ................            OOOO        OOOO        OOOO            ................    ",
"   ............XXXX            OOOO        OOOO        OOOO            XXXX............    ",
"   ............XXXX            OOOO        OOOO        OOOO            XXXX............    ",
"   ............XXXX            OOOO        OOOO        OOOO            XXXX............    ",
"   ............XXXX            OOOO        OOOO        OOOO            XXXX............    ",
"   ................++++                                            ++++................    ",
"   ................++++                                            ++++................    ",
"   ................++++                                            ++++................    ",
"   ................++++                                            ++++................    ",
"   ....................++++                                    ++++....................    ",
"   ....................++++                                    ++++....................    ",
"   ....................++++                                    ++++....................    ",
"   ....................++++                                    ++++....................    ",
"   ........................XXXX....XXXX....XXXX....XXXX....XXXX........................    ",
"   ........................XXXX....XXXX....XXXX....XXXX....XXXX........................    ",
"   ........................XXXX....XXXX....XXXX....XXXX....XXXX........................    ",
"   ........................XXXX....XXXX....XXXX....XXXX....XXXX........................    ",
"   ....................................................................................    ",
"   ....................................................................................    ",
"   ....................................................................................    ",
"   ....................................................................................    ",
"       ............................................................................        ",
"       ............................................................................        ",
"       ............................................................................        ",
"       ............................................................................        ",
"   ....    ....................................................................    ....    ",
"   ....    ....................................................................    ....    ",
"   ....    ....................................................................    ....    ",
"   ....    ....................................................................    ....    ",
"       ....    ............................................................    ....        ",
"       ....    ............................................................    ....        ",
"       ....    ............................................................    ....        ",
"       ....    ............................................................    ....        ",
"                                                                                           ",
"                                                                                           ",
"                                                                                           ",
"                                                                                           "
};
