/* XPM */
static char *b46d9310e75147d6cfb1009c260c63caH9pSpMHZBnH9F4hN[] = {
/* columns rows colors chars-per-pixel */
"91 91 3 1 ",
"  c #505163",
". c #58797E",
"X c white",
/* pixels */
"                                                                                           ",
"                                                                                           ",
"                                                                                           ",
"                                                                                           ",
"        ....    ............................................................    ....       ",
"        ....    ............................................................    ....       ",
"        ....    ............................................................    ....       ",
"        ....    ............................................................    ....       ",
"    ....    ....................................................................    ....   ",
"    ....    ....................................................................    ....   ",
"    ....    ....................................................................    ....   ",
"    ....    ....................................................................    ....   ",
"        ............................................................................       ",
"        ............................................................................       ",
"        ............................................................................       ",
"        ............................................................................       ",
"    ....................................................................................   ",
"    ....................................................................................   ",
"    ....................................................................................   ",
"    ....................................................................................   ",
"    ....................................................................................   ",
"    ....................................................................................   ",
"    ....................................................................................   ",
"    ....................................................................................   ",
"    ....................................................................................   ",
"    ....................................................................................   ",
"    ....................................................................................   ",
"    ....................................................................................   ",
"    ....................................................................................   ",
"    ....................................................................................   ",
"    ....................................................................................   ",
"    ....................................................................................   ",
"    ....................................................................................   ",
"    ....................................................................................   ",
"    ....................................................................................   ",
"    ....................................................................................   ",
"    ....................................................................................   ",
"    ....................................................................................   ",
"    ....................................................................................   ",
"    ....................................................................................   ",
"    ....................................................................................   ",
"    ....................................................................................   ",
"    ....................................................................................   ",
"    ....................................................................................   ",
"    ....................................................................................   ",
"    ....................................................................................   ",
"    ....................................................................................   ",
"    ....................................................................................   ",
"    ....................................................................................   ",
"    ....................................................................................   ",
"    ....................................................................................   ",
"    ....................................................................................   ",
"    ....................................................................................   ",
"    ....................................................................................   ",
"    ....................................................................................   ",
"    ....................................................................................   ",
"    ....................................................................................   ",
"    ....................................................................................   ",
"    ....................................................................................   ",
"    ....................................................................................   ",
"    ....................................................................................   ",
"    ....................................................................................   ",
"    ....................................................................................   ",
"    ....................................................................................   ",
"    ....................................................................................   ",
"    ....................................................................................   ",
"    ....................................................................................   ",
"    ....................................................................................   ",
"    ....................................................................................   ",
"    ....................................................................................   ",
"    ....................................................................................   ",
"    ....................................................................................   ",
"    ....................................................................................   ",
"    ....................................................................................   ",
"    ....................................................................................   ",
"    ....................................................................................   ",
"        ............................................................................       ",
"        ............................................................................       ",
"        ............................................................................       ",
"        ............................................................................       ",
"    ....    ....................................................................    ....   ",
"    ....    ....................................................................    ....   ",
"    ....    ....................................................................    ....   ",
"    ....    ....................................................................    ....   ",
"        ....    ............................................................    ....       ",
"        ....    ............................................................    ....       ",
"        ....    ............................................................    ....       ",
"        ....    ............................................................    ....       ",
"                                                                                           ",
"                                                                                           ",
"                                                                                           "
};
