/* XPM */
static char *fdc9c4db690a4190830bcfdca3993073XO9TuJaoYXK1cKNd[] = {
/* columns rows colors chars-per-pixel */
"91 91 3 1 ",
"  c #505163",
". c #C9CDA0",
"X c white",
/* pixels */
"                                                                                           ",
"                                                                                           ",
"                                                                                           ",
"       ....    ............................................................    ....        ",
"       ....    ............................................................    ....        ",
"       ....    ............................................................    ....        ",
"       ....    ............................................................    ....        ",
"   ....    ....................................................................    ....    ",
"   ....    ....................................................................    ....    ",
"   ....    ....................................................................    ....    ",
"   ....    ....................................................................    ....    ",
"       ............................................................................        ",
"       ............................................................................        ",
"       ............................................................................        ",
"       ............................................................................        ",
"   ....................................................................................    ",
"   ....................................................................................    ",
"   ....................................................................................    ",
"   ....................................................................................    ",
"   ....................................................................................    ",
"   ....................................................................................    ",
"   ....................................................................................    ",
"   ....................................................................................    ",
"   ....................................................................................    ",
"   ....................................................................................    ",
"   ....................................................................................    ",
"   ....................................................................................    ",
"   ....................................................................................    ",
"   ....................................................................................    ",
"   ....................................................................................    ",
"   ....................................................................................    ",
"   ....................................................................................    ",
"   ....................................................................................    ",
"   ....................................................................................    ",
"   ....................................................................................    ",
"   ....................................................................................    ",
"   ....................................................................................    ",
"   ....................................................................................    ",
"   ....................................................................................    ",
"   ....................................................................................    ",
"   ....................................................................................    ",
"   ....................................................................................    ",
"   ....................................................................................    ",
"   ....................................................................................    ",
"   ....................................................................................    ",
"   ....................................................................................    ",
"   ....................................................................................    ",
"   ....................................................................................    ",
"   ....................................................................................    ",
"   ....................................................................................    ",
"   ....................................................................................    ",
"   ....................................................................................    ",
"   ....................................................................................    ",
"   ....................................................................................    ",
"   ....................................................................................    ",
"   ....................................................................................    ",
"   ....................................................................................    ",
"   ....................................................................................    ",
"   ....................................................................................    ",
"   ....................................................................................    ",
"   ....................................................................................    ",
"   ....................................................................................    ",
"   ....................................................................................    ",
"   ....................................................................................    ",
"   ....................................................................................    ",
"   ....................................................................................    ",
"   ....................................................................................    ",
"   ....................................................................................    ",
"   ....................................................................................    ",
"   ....................................................................................    ",
"   ....................................................................................    ",
"   ....................................................................................    ",
"   ....................................................................................    ",
"   ....................................................................................    ",
"   ....................................................................................    ",
"       ............................................................................        ",
"       ............................................................................        ",
"       ............................................................................        ",
"       ............................................................................        ",
"   ....    ....................................................................    ....    ",
"   ....    ....................................................................    ....    ",
"   ....    ....................................................................    ....    ",
"   ....    ....................................................................    ....    ",
"       ....    ............................................................    ....        ",
"       ....    ............................................................    ....        ",
"       ....    ............................................................    ....        ",
"       ....    ............................................................    ....        ",
"                                                                                           ",
"                                                                                           ",
"                                                                                           ",
"                                                                                           "
};
